<svg id="svg" fill="#000000" stroke="#000000" width="200px" height="200px" version="1.1" viewBox="144 144 512 512" xmlns="http://www.w3.org/2000/svg">
    <g id="IconSvg_bgCarrier" stroke-width="0"></g>
    <g id="IconSvg_tracerCarrier" stroke-linecap="round" stroke-linejoin="round" stroke="#CCCCCC"></g>
     <g id="IconSvg_iconCarrier">
      <path xmlns="http://www.w3.org/2000/svg" d="m204.32 396.18c1.1094 1.8477 2.9219 3.1562 5.0234 3.6289 2.0977 0.46875 4.3008 0.0625 6.0898-1.1328l34.992-23.324v260.81c0 2.0859 0.82812 4.0898 2.3047 5.5664 1.4766 1.4766 3.4805 2.3047 5.5664 2.3047h283.39c2.0859 0 4.0898-0.82812 5.5664-2.3047 1.4766-1.4766 2.3047-3.4805 2.3047-5.5664v-260.81l34.992 23.324c1.7891 1.1953 3.9922 1.6016 6.0898 1.1328 2.1016-0.47266 3.918-1.7812 5.0234-3.6289l47.23-78.719h0.003906c2.0117-3.3516 1.2617-7.6719-1.7656-10.148l-71.406-58.457c-10.969-8.9648-23.965-15.109-37.855-17.895l-13.801-2.7305v-19.914c41.898-6.8242 82.668-19.352 121.17-37.238l-6.4961-14.324c-36.438 16.988-75.016 28.953-114.67 35.566v-4.8672c0-2.0859-0.82812-4.0898-2.3047-5.5664-1.4766-1.4766-3.4805-2.3047-5.5664-2.3047h-23.617c-4.3477 0-7.8711 3.5234-7.8711 7.8711v11.141c-23.223 2.9297-46.594 4.5859-69.996 4.957-0.76562-0.23438-1.5625-0.35547-2.3633-0.35156h-12.746c-24.184-0.035157-48.344-1.5859-72.336-4.6523v-11.094c0-2.0859-0.82812-4.0898-2.3047-5.5664-1.4766-1.4766-3.4805-2.3047-5.5664-2.3047h-23.617c-4.3477 0-7.8711 3.5234-7.8711 7.8711v4.7227c-39.359-7.7734-77.797-19.645-114.69-35.422l-0.30859-0.16016-5.8711 14.613c38.852 16.621 79.371 29.031 120.87 37.012v20.012l-13.801 2.7617c-13.883 2.7773-26.879 8.9102-37.848 17.863l-71.414 58.457c-3.0273 2.4766-3.7773 6.7969-1.7656 10.148zm290.14-200.86h7.8711v62.977h-7.8711zm-100.85 23.617h3.2383c2.7812 0.41016 5.5938 0.57812 8.4062 0.49609 4.5898 0 11.02-0.20312 20.223-0.58984 12.855-0.53516 31.922-1.7227 53.27-4.3516v12.316h-23.648c-0.64062 0.046875-1.2734 0.17188-1.8789 0.37891v-0.14062l-9.8555 2.4648c-13.75 3.4336-27.867 5.1719-42.039 5.1719h-2.6602c-14.156 0-28.262-1.7383-41.996-5.1719l-9.8633-2.4648v0.14062c-0.62109-0.20703-1.2617-0.33594-1.9141-0.37891h-23.617v-12.406c24 2.9844 48.156 4.5 72.336 4.5352zm52.438 26.086v0.003906c-3.1953 14.016-12.602 25.816-25.555 32.055-12.953 6.2422-28.043 6.2422-40.996 0-12.953-6.2383-22.359-18.039-25.555-32.055 14.641 3.5703 29.652 5.3828 44.723 5.3984h2.6602c15.07-0.011719 30.082-1.8242 44.723-5.3984zm-148.39-49.703h7.8711v62.977h-7.8711zm-57.418 65.746-0.003906 0.003907c8.9727-7.3398 19.605-12.367 30.969-14.645l10.707-2.1406v21.887c0 2.0859 0.82812 4.0898 2.3047 5.5664 1.4766 1.4727 3.4805 2.3047 5.5664 2.3047h23.617c2.0859 0 4.0898-0.83203 5.5664-2.3047 1.4766-1.4766 2.3047-3.4805 2.3047-5.5664v-23.617h16.234c2.5625 20.48 15 38.402 33.289 47.973 18.289 9.5703 40.105 9.5703 58.395 0 18.289-9.5703 30.727-27.492 33.293-47.973h16.23v23.617c0 2.0859 0.82812 4.0898 2.3047 5.5664 1.4766 1.4727 3.4805 2.3047 5.5664 2.3047h23.617c2.0859 0 4.0898-0.83203 5.5664-2.3047 1.4766-1.4766 2.3047-3.4805 2.3047-5.5664v-21.887l10.707 2.1406c11.367 2.2773 22.004 7.3047 30.977 14.645l66.125 54.121-39.484 65.801-40.359-26.906h-0.003907c-2.4141-1.5977-5.5117-1.7422-8.0625-0.375-2.5547 1.3672-4.1484 4.0273-4.1523 6.9219v267.65h-267.65v-267.65c0-2.9023-1.5977-5.5703-4.1602-6.9414-2.5586-1.3672-5.668-1.2188-8.082 0.39453l-40.359 26.906-39.504-65.805z"></path>

      </g>
      </svg>